<?xml version="1.0" encoding="UTF-8"?>
<svg version="1.1" xmlns="http://www.w3.org/2000/svg" width="1024" height="1024">
<path d="M0 0 C0.66902344 0.51038818 1.33804688 1.02077637 2.02734375 1.54663086 C20.2804523 15.56129692 37.09070784 31.01296205 53.375 47.25 C53.89737244 47.7696936 54.41974487 48.28938721 54.95794678 48.8248291 C60.85767463 54.70160622 66.62240112 60.6344979 72 67 C72.91239423 68.05630599 73.82513624 69.11231171 74.73828125 70.16796875 C133.60018256 139.21235374 171.43752824 223.4448765 188 339 C188.08619598 339.96056305 188.17239197 340.9211261 188.26119995 341.91079712 C188.92527485 349.85320837 189.17359531 357.73881317 189.203125 365.70703125 C189.21018463 366.9785202 189.21724426 368.25000916 189.22451782 369.56002808 C189.24405303 373.64419122 189.24921003 377.72829452 189.25 381.8125 C189.25044186 382.85662741 189.25044186 382.85662741 189.25089264 383.9218483 C189.25231722 404.75184138 189.09400421 425.3541558 186 446 C185.84727631 447.02888336 185.84727631 447.02888336 185.69146729 448.07855225 C173.44327159 530.0751391 143.03516146 608.1279965 92 674 C91.58572754 674.53898926 91.17145508 675.07797852 90.74462891 675.63330078 C76.60849779 694.00870114 61.11063367 710.96675242 44.75 727.375 C44.2303064 727.89737244 43.71061279 728.41974487 43.1751709 728.95794678 C37.29839378 734.85767463 31.3655021 740.62240112 25 746 C23.94369401 746.91239423 22.88768829 747.82513624 21.83203125 748.73828125 C-48.94046725 809.07343844 -135.93188722 847.5755834 -228 860 C-229.58530518 860.22647217 -229.58530518 860.22647217 -231.20263672 860.45751953 C-270.69263214 865.88483247 -314.57605616 865.9081066 -354 860 C-355.02888336 859.84727631 -355.02888336 859.84727631 -356.07855225 859.69146729 C-408.0822814 851.92343844 -457.82737451 837.27878956 -505 814 C-506.01384766 813.50000488 -507.02769531 813.00000977 -508.07226562 812.48486328 C-534.1888538 799.48230059 -558.93751192 783.86795209 -582 766 C-582.53898926 765.58572754 -583.07797852 765.17145508 -583.63330078 764.74462891 C-602.00870114 750.60849779 -618.96675242 735.11063367 -635.375 718.75 C-635.89737244 718.2303064 -636.41974487 717.71061279 -636.95794678 717.1751709 C-642.85767463 711.29839378 -648.62240112 705.3655021 -654 699 C-654.91239423 697.94369401 -655.82513624 696.88768829 -656.73828125 695.83203125 C-717.3716483 624.70973576 -754.82080123 538.24238844 -768 446 C-768.16661133 444.86353027 -768.33322266 443.72706055 -768.50488281 442.55615234 C-773.99250754 403.13728281 -773.77025533 359.35939155 -768 320 C-767.82307617 318.76169434 -767.64615234 317.52338867 -767.46386719 316.24755859 C-760.75555618 270.44219149 -748.30975723 226.10102648 -729 184 C-728.31381592 182.50001465 -728.31381592 182.50001465 -727.61376953 180.96972656 C-717.52255151 159.06904673 -706.06243207 138.23837444 -692.6875 118.1875 C-692.27129395 117.56324127 -691.85508789 116.93898254 -691.42626953 116.29580688 C-685.87144183 107.9947275 -680.07684676 99.92958932 -674 92 C-673.49090088 91.33282959 -672.98180176 90.66565918 -672.45727539 89.97827148 C-658.44410269 71.72150905 -642.98830742 54.91056532 -626.75 38.625 C-626.2303064 38.10262756 -625.71061279 37.58025513 -625.1751709 37.04205322 C-619.29839378 31.14232537 -613.3655021 25.37759888 -607 20 C-605.94369401 19.08760577 -604.88768829 18.17486376 -603.83203125 17.26171875 C-585.63059872 1.74458545 -566.28793148 -12.33496042 -546 -25 C-545.3915625 -25.38075684 -544.783125 -25.76151367 -544.15625 -26.15380859 C-477.88496019 -67.37353353 -402.64133696 -91.06125992 -325 -97 C-323.62448975 -97.10586426 -323.62448975 -97.10586426 -322.22119141 -97.21386719 C-218.7185475 -104.71895052 -112.84289375 -76.05835317 0 0 Z " fill="#F2F2F2" transform="translate(803,129)"/>
<path d="M0 0 C98.67 0 197.34 0 299 0 C303.61426256 17.3034846 303.61426256 17.3034846 304.6875 24.375 C304.80416016 25.09042969 304.92082031 25.80585938 305.04101562 26.54296875 C306.346118 34.72750908 307.15501704 42.79069973 307.16796875 51.08203125 C307.17445686 52.34691879 307.17445686 52.34691879 307.18107605 53.63735962 C307.19114682 56.36246438 307.19125998 59.08738041 307.1875 61.8125 C307.18623108 62.75094757 307.18496216 63.68939514 307.18365479 64.65628052 C307.08603967 102.5821748 302.63545249 138.81900504 291 175 C290.57315918 176.35254883 290.57315918 176.35254883 290.13769531 177.73242188 C281.8055502 203.87365612 270.02031053 229.65372069 254 252 C253.49065918 252.71542969 252.98131836 253.43085937 252.45654297 254.16796875 C245.45131255 263.97489139 238.30504427 273.25625576 230 282 C228.91009629 283.2652029 227.8263944 284.53578407 226.75 285.8125 C218.04690543 295.78821688 208.46606031 304.90249648 198 313 C196.49373047 314.19689453 196.49373047 314.19689453 194.95703125 315.41796875 C159.56426296 343.37052136 117.83417426 361.22735774 74 371 C73.11280273 371.20850586 72.22560547 371.41701172 71.31152344 371.63183594 C29.95403338 381.30638884 -17.50738129 381.22922501 -59 373 C-59.85174805 372.83661133 -60.70349609 372.67322266 -61.58105469 372.50488281 C-91.88987327 366.62568925 -120.73575835 356.48717634 -148 342 C-148.76199707 341.60232422 -149.52399414 341.20464844 -150.30908203 340.79492188 C-188.86413171 320.62032028 -224.22178694 291.37067754 -251 257 C-251.45197754 256.42056641 -251.90395508 255.84113281 -252.36962891 255.24414062 C-265.04889369 238.9029179 -278.86442866 220.59389319 -286 201 C-285.01902344 200.27296875 -284.03804687 199.5459375 -283.02734375 198.796875 C-275.38675179 193.11249608 -267.84466582 187.33489601 -260.43066406 181.35791016 C-256.03587431 177.81785511 -251.5951262 174.34991124 -247.11328125 170.92041016 C-242.4954239 167.38608018 -237.90114535 163.82216396 -233.3125 160.25 C-232.55090576 159.65719238 -231.78931152 159.06438477 -231.00463867 158.45361328 C-229.44654195 157.24065319 -227.88851837 156.02759914 -226.33056641 154.81445312 C-221.81580735 151.29950558 -217.29869033 147.78758912 -212.78198242 144.27514648 C-208.85644413 141.22223689 -204.93161254 138.16842474 -201.0078125 135.11328125 C-200.19054687 134.47712891 -199.37328125 133.84097656 -198.53125 133.18554688 C-196.96592348 131.96708248 -195.40080794 130.74834697 -193.8359375 129.52929688 C-193.12953125 128.97951172 -192.423125 128.42972656 -191.6953125 127.86328125 C-191.07672363 127.38157471 -190.45813477 126.89986816 -189.82080078 126.40356445 C-189.21993652 125.94038818 -188.61907227 125.47721191 -188 125 C-187.32565918 124.44594482 -186.65131836 123.89188965 -185.95654297 123.32104492 C-184 122 -184 122 -181 122 C-180.55011719 123.20011719 -180.10023438 124.40023437 -179.63671875 125.63671875 C-165.78136811 161.85090273 -144.34591278 192.80683584 -113 216 C-112.46117187 216.39960937 -111.92234375 216.79921875 -111.3671875 217.2109375 C-92.68713477 230.92191217 -71.53871956 241.45641193 -49 247 C-47.70508284 247.34786335 -46.41083583 247.69822864 -45.1171875 248.05078125 C-30.70333772 251.88174478 -16.56780935 253.38820296 -1.6875 253.3125 C-0.95587646 253.31100952 -0.22425293 253.30951904 0.52954102 253.3079834 C38.94728354 253.16856249 78.54542853 245.3662531 110 222 C110.52835449 221.61682617 111.05670898 221.23365234 111.60107422 220.83886719 C143.16910235 197.8318161 164.75984946 164.91237731 174 127 C174.33 124.69 174.66 122.38 175 120 C117.25 119.67 59.5 119.34 0 119 C0 79.73 0 40.46 0 0 Z " fill="#3BAB59" transform="translate(512,454)"/>
<path d="M0 0 C1.18695465 0.00090637 1.18695465 0.00090637 2.39788818 0.00183105 C14.48588897 0.02681067 26.33537352 0.44814072 38.3125 2.1875 C39.31925781 2.32704102 40.32601563 2.46658203 41.36328125 2.61035156 C49.03433602 3.68184231 56.67845303 4.87851743 64.3125 6.1875 C65.51374512 6.39149414 65.51374512 6.39149414 66.73925781 6.59960938 C116.29956552 15.36780032 164.25124844 41.418308 202.25 73.75 C202.81098389 74.22622803 203.37196777 74.70245605 203.94995117 75.19311523 C207.11581115 77.9493391 209.7939848 80.83150263 212.3125 84.1875 C210.9826338 85.54507174 209.64836929 86.89833496 208.3125 88.25 C207.57 89.00410156 206.8275 89.75820313 206.0625 90.53515625 C204.02772522 92.4976734 201.99263464 94.32579181 199.84375 96.15234375 C193.50613386 101.65093918 187.70802723 107.72481461 181.8125 113.6875 C168.64716737 127.00280387 168.64716737 127.00280387 162.46289062 132.25976562 C157.01128257 137.146902 151.95845685 142.48292362 146.8125 147.6875 C132.81876245 161.84064546 132.81876245 161.84064546 126.88085938 166.83789062 C125.27711718 168.21794773 123.79010956 169.67412379 122.3125 171.1875 C118.92339597 169.77676458 116.34007707 167.64804103 113.54345703 165.30371094 C84.81177775 141.25103967 46.89580464 126.09403197 9.3125 125.1875 C8.46381348 125.16171875 7.61512695 125.1359375 6.74072266 125.109375 C-46.63434754 123.64428472 -95.21299343 142.39559796 -134.14282227 178.78564453 C-159.48899395 202.91485783 -177.25496941 234.62128753 -186.6875 268.1875 C-186.95304688 269.10273438 -187.21859375 270.01796875 -187.4921875 270.9609375 C-188.32365768 274.02109064 -189.02376422 277.08649788 -189.6875 280.1875 C-189.96851563 281.46238281 -190.24953125 282.73726563 -190.5390625 284.05078125 C-195.19794503 307.89376998 -194.73745488 335.46361126 -189.6875 359.1875 C-189.52169434 359.98462402 -189.35588867 360.78174805 -189.18505859 361.60302734 C-187.37675477 370.43172916 -187.37675477 370.43172916 -184.56640625 378.96875 C-183.6875 381.1875 -183.6875 381.1875 -183.6875 384.1875 C-185.6015625 385.84375 -185.6015625 385.84375 -188.3125 387.6875 C-192.72951509 390.78222395 -197.02545059 393.96021367 -201.25 397.3125 C-202.44386686 398.25669196 -203.63788227 399.20069612 -204.83203125 400.14453125 C-205.76523193 400.88243896 -205.76523193 400.88243896 -206.71728516 401.63525391 C-210.27761466 404.44028179 -213.85812649 407.21934242 -217.4375 410 C-218.19490479 410.58861816 -218.95230957 411.17723633 -219.73266602 411.78369141 C-221.27937774 412.98561972 -222.82617177 414.18744212 -224.37304688 415.38916016 C-228.14565634 418.32049363 -231.91650355 421.25409198 -235.6875 424.1875 C-237.18749123 425.35417794 -238.68749124 426.5208446 -240.1875 427.6875 C-240.93 428.265 -241.6725 428.8425 -242.4375 429.4375 C-249.1875 434.6875 -249.1875 434.6875 -251.44067383 436.43994141 C-252.93012951 437.59842492 -254.41955048 438.75695305 -255.90893555 439.91552734 C-259.81996994 442.95777635 -263.73172937 445.999087 -267.64453125 449.0390625 C-268.45728516 449.67070313 -269.27003906 450.30234375 -270.10742188 450.953125 C-271.65928172 452.1591418 -273.21135232 453.36488748 -274.76367188 454.5703125 C-275.81844727 455.39015625 -275.81844727 455.39015625 -276.89453125 456.2265625 C-277.55275879 456.73477539 -278.21098633 457.24298828 -278.88916016 457.76660156 C-280.46792412 459.01400942 -281.99473747 460.32658659 -283.51171875 461.6484375 C-284.22972656 462.15632813 -284.94773437 462.66421875 -285.6875 463.1875 C-288.6875 462.1875 -288.6875 462.1875 -290.37890625 459.3203125 C-291.01738037 457.99137349 -291.6396969 456.65460961 -292.25 455.3125 C-292.591521 454.5707251 -292.93304199 453.8289502 -293.28491211 453.06469727 C-327.85817872 376.05884364 -332.15373113 287.53077425 -302.1171875 208.26953125 C-287.11232401 169.95952922 -266.17670084 134.9709525 -238.1015625 104.8125 C-236.1568591 102.69787106 -234.28275133 100.55167312 -232.4140625 98.37109375 C-228.65838935 94.06635148 -224.61536374 90.14143585 -220.4375 86.25 C-219.6851709 85.54762207 -218.9328418 84.84524414 -218.15771484 84.12158203 C-212.51827535 78.89127123 -206.80028909 73.86244796 -200.6875 69.1875 C-200.02588867 68.68041504 -199.36427734 68.17333008 -198.68261719 67.65087891 C-150.46095938 30.88583914 -93.51753118 6.13624393 -32.6875 1.1875 C-31.61363037 1.09992432 -30.53976074 1.01234863 -29.43334961 0.92211914 C-19.61321746 0.19168532 -9.84366734 -0.01401529 0 0 Z " fill="#EB5042" transform="translate(513.6875,191.8125)"/>
<path d="M0 0 C98.67 0 197.34 0 299 0 C303.61426256 17.3034846 303.61426256 17.3034846 304.6875 24.375 C304.80416016 25.09042969 304.92082031 25.80585938 305.04101562 26.54296875 C306.346118 34.72750908 307.15501704 42.79069973 307.16796875 51.08203125 C307.17229416 51.92528961 307.17661957 52.76854797 307.18107605 53.63735962 C307.19114682 56.36246438 307.19125998 59.08738041 307.1875 61.8125 C307.18559662 63.22017136 307.18559662 63.22017136 307.18365479 64.65628052 C307.08603967 102.5821748 302.63545249 138.81900504 291 175 C290.57315918 176.35254883 290.57315918 176.35254883 290.13769531 177.73242188 C281.8055502 203.87365612 270.02031053 229.65372069 254 252 C253.49065918 252.71542969 252.98131836 253.43085937 252.45654297 254.16796875 C245.45158278 263.97451308 238.30641368 273.25798777 230 282 C228.82619437 283.34798324 227.65902568 284.70178771 226.5 286.0625 C222.25671097 290.95703722 217.619615 295.46404 213 300 C207.77899192 298.39984821 204.00952515 295.10327228 199.8125 291.75 C198.20063868 290.4790172 196.58865603 289.20818826 194.9765625 287.9375 C194.15317383 287.28523438 193.32978516 286.63296875 192.48144531 285.9609375 C188.56763654 282.86808901 184.62742312 279.80946273 180.6875 276.75 C179.93315674 276.1631543 179.17881348 275.57630859 178.40161133 274.97167969 C174.11110249 271.63456515 169.81112922 268.31042796 165.5 265 C160.42317102 261.10160686 155.36422927 257.18085999 150.3125 253.25 C149.55501465 252.66065674 148.7975293 252.07131348 148.01708984 251.46411133 C144.09919262 248.41488628 140.18332473 245.36308422 136.26953125 242.30859375 C134.7214047 241.10149769 133.17322838 239.89446546 131.625 238.6875 C130.50822876 237.81544922 130.50822876 237.81544922 129.36889648 236.92578125 C126.00795467 234.30843707 122.63624494 231.71356871 119.203125 229.19140625 C118.63513184 228.7735083 118.06713867 228.35561035 117.48193359 227.92504883 C115.99008516 226.83415449 114.49140878 225.75261446 112.9921875 224.671875 C112.33476563 224.12015625 111.67734375 223.5684375 111 223 C111 222.34 111 221.68 111 221 C112.79128509 219.57065265 114.63672323 218.20914235 116.5 216.875 C145.83732571 195.00915342 165.3955479 162.3041039 174 127 C174.33 124.69 174.66 122.38 175 120 C117.25 119.67 59.5 119.34 0 119 C0 79.73 0 40.46 0 0 Z " fill="#4889F4" transform="translate(512,454)"/>
<path d="M0 0 C3.57956532 1.71796305 6.48713617 3.80133107 9.625 6.25 C10.46381714 6.90210449 10.46381714 6.90210449 11.31958008 7.56738281 C12.55258411 8.52651591 13.7843797 9.48720398 15.01513672 10.44921875 C17.08143357 12.06362436 19.15158237 13.67297804 21.22265625 15.28125 C25.0404101 18.24657773 28.85530355 21.21556012 32.66943359 24.18554688 C36.44517266 27.12513338 40.22265535 30.06247715 44 33 C45.50000877 34.16665539 47.00000876 35.33332207 48.5 36.5 C49.2425 37.0775 49.985 37.655 50.75 38.25 C53 40 55.25 41.75 57.5 43.5 C58.24282227 44.0777417 58.98564453 44.6554834 59.75097656 45.25073242 C61.24775643 46.41491259 62.74450134 47.5791377 64.24121094 48.7434082 C68.04019058 51.69849173 71.83981465 54.65274014 75.640625 57.60546875 C79.38424522 60.51388568 83.12499034 63.4259719 86.86474609 66.33935547 C88.97595447 67.98129915 91.09122114 69.61789876 93.20703125 71.25390625 C94.49230503 72.25245291 95.77746751 73.25114284 97.0625 74.25 C97.65256836 74.7039917 98.24263672 75.1579834 98.85058594 75.62573242 C102.88645374 78.77290748 102.88645374 78.77290748 104 81 C103.61035156 82.92919922 103.61035156 82.92919922 102.890625 85.3046875 C102.63168457 86.18640625 102.37274414 87.068125 102.10595703 87.9765625 C101.82349121 88.93304688 101.54102539 89.88953125 101.25 90.875 C93.14353471 119.98138318 91.6802079 152.31061697 98 182 C98.16580566 182.79712402 98.33161133 183.59424805 98.50244141 184.41552734 C100.31074523 193.24422916 100.31074523 193.24422916 103.12109375 201.78125 C104 204 104 204 104 207 C102.0859375 208.65625 102.0859375 208.65625 99.375 210.5 C94.95798491 213.59472395 90.66204941 216.77271367 86.4375 220.125 C85.24363314 221.06919196 84.04961773 222.01319612 82.85546875 222.95703125 C81.92226807 223.69493896 81.92226807 223.69493896 80.97021484 224.44775391 C77.40988534 227.25278179 73.82937351 230.03184242 70.25 232.8125 C69.49259521 233.40111816 68.73519043 233.98973633 67.95483398 234.59619141 C66.40812226 235.79811972 64.86132823 236.99994212 63.31445312 238.20166016 C59.54184366 241.13299363 55.77099645 244.06659198 52 247 C50.50000877 248.16667794 49.00000876 249.3333446 47.5 250.5 C46.7575 251.0775 46.015 251.655 45.25 252.25 C38.5 257.5 38.5 257.5 36.24682617 259.25244141 C34.75737049 260.41092492 33.26794952 261.56945305 31.77856445 262.72802734 C27.86753006 265.77027635 23.95577063 268.811587 20.04296875 271.8515625 C19.23021484 272.48320313 18.41746094 273.11484375 17.58007812 273.765625 C16.02821828 274.9716418 14.47614768 276.17738748 12.92382812 277.3828125 C11.86905273 278.20265625 11.86905273 278.20265625 10.79296875 279.0390625 C10.13474121 279.54727539 9.47651367 280.05548828 8.79833984 280.57910156 C7.21957588 281.82650942 5.69276253 283.13908659 4.17578125 284.4609375 C3.45777344 284.96882813 2.73976562 285.47671875 2 286 C-1 285 -1 285 -2.69140625 282.1328125 C-3.32988037 280.80387349 -3.9521969 279.46710961 -4.5625 278.125 C-4.904021 277.3832251 -5.24554199 276.6414502 -5.59741211 275.87719727 C-39.6212148 200.09517762 -44.52585421 112.69721753 -15.66455078 34.37597656 C-11.12082176 22.52044546 -6.30424812 11.03585895 0 0 Z " fill="#FAC016" transform="translate(226,369)"/>
</svg>
